<svg xmlns="http://www.w3.org/2000/svg" viewBox="0 0 52 52" width="52" height="52">
  <rect width="52" height="52" rx="10" fill="#ea580c"/>

  <!-- Cellules remplies (forme U) -->
  <rect x="15" y="11" width="7" height="7" rx="1.5" fill="white"/>
  <rect x="31" y="11" width="7" height="7" rx="1.5" fill="white"/>
  <rect x="15" y="19" width="7" height="7" rx="1.5" fill="white"/>
  <rect x="31" y="19" width="7" height="7" rx="1.5" fill="white"/>
  <rect x="15" y="27" width="7" height="7" rx="1.5" fill="white"/>
  <rect x="31" y="27" width="7" height="7" rx="1.5" fill="white"/>
  <rect x="15" y="35" width="7" height="7" rx="1.5" fill="white"/>
  <rect x="23" y="35" width="7" height="7" rx="1.5" fill="white"/>
  <rect x="31" y="35" width="7" height="7" rx="1.5" fill="white"/>

  <!-- Cellules vides (contour discret) -->
  <rect x="7"  y="3"  width="7" height="7" rx="1.5" fill="none" stroke="white" stroke-opacity="0.2" stroke-width="0.75"/>
  <rect x="15" y="3"  width="7" height="7" rx="1.5" fill="none" stroke="white" stroke-opacity="0.2" stroke-width="0.75"/>
  <rect x="23" y="3"  width="7" height="7" rx="1.5" fill="none" stroke="white" stroke-opacity="0.2" stroke-width="0.75"/>
  <rect x="31" y="3"  width="7" height="7" rx="1.5" fill="none" stroke="white" stroke-opacity="0.2" stroke-width="0.75"/>
  <rect x="39" y="3"  width="7" height="7" rx="1.5" fill="none" stroke="white" stroke-opacity="0.2" stroke-width="0.75"/>

  <rect x="7"  y="11" width="7" height="7" rx="1.5" fill="none" stroke="white" stroke-opacity="0.2" stroke-width="0.75"/>
  <rect x="23" y="11" width="7" height="7" rx="1.5" fill="none" stroke="white" stroke-opacity="0.2" stroke-width="0.75"/>
  <rect x="39" y="11" width="7" height="7" rx="1.5" fill="none" stroke="white" stroke-opacity="0.2" stroke-width="0.75"/>

  <rect x="7"  y="19" width="7" height="7" rx="1.5" fill="none" stroke="white" stroke-opacity="0.2" stroke-width="0.75"/>
  <rect x="23" y="19" width="7" height="7" rx="1.5" fill="none" stroke="white" stroke-opacity="0.2" stroke-width="0.75"/>
  <rect x="39" y="19" width="7" height="7" rx="1.5" fill="none" stroke="white" stroke-opacity="0.2" stroke-width="0.75"/>

  <rect x="7"  y="27" width="7" height="7" rx="1.5" fill="none" stroke="white" stroke-opacity="0.2" stroke-width="0.75"/>
  <rect x="23" y="27" width="7" height="7" rx="1.5" fill="none" stroke="white" stroke-opacity="0.2" stroke-width="0.75"/>
  <rect x="39" y="27" width="7" height="7" rx="1.5" fill="none" stroke="white" stroke-opacity="0.2" stroke-width="0.75"/>

  <rect x="7"  y="35" width="7" height="7" rx="1.5" fill="none" stroke="white" stroke-opacity="0.2" stroke-width="0.75"/>
  <rect x="39" y="35" width="7" height="7" rx="1.5" fill="none" stroke="white" stroke-opacity="0.2" stroke-width="0.75"/>

  <rect x="7"  y="43" width="7" height="7" rx="1.5" fill="none" stroke="white" stroke-opacity="0.2" stroke-width="0.75"/>
  <rect x="15" y="43" width="7" height="7" rx="1.5" fill="none" stroke="white" stroke-opacity="0.2" stroke-width="0.75"/>
  <rect x="23" y="43" width="7" height="7" rx="1.5" fill="none" stroke="white" stroke-opacity="0.2" stroke-width="0.75"/>
  <rect x="31" y="43" width="7" height="7" rx="1.5" fill="none" stroke="white" stroke-opacity="0.2" stroke-width="0.75"/>
  <rect x="39" y="43" width="7" height="7" rx="1.5" fill="none" stroke="white" stroke-opacity="0.2" stroke-width="0.75"/>
</svg>
